Coordinates
version=1
nRows=22
nColumns=24
inDegrees=yes

Units are S.I. units (second, meters, Newtons, ...)
Angles are in degrees.

endheader
time	pelvis_tilt	pelvis_list	pelvis_rotation	pelvis_tx	pelvis_ty	pelvis_tz	hip_flexion_r	hip_adduction_r	hip_rotation_r	knee_angle_r	ankle_angle_r	subtalar_angle_r	mtp_angle_r	hip_flexion_l	hip_adduction_l	hip_rotation_l	knee_angle_l	ankle_angle_l	subtalar_angle_l	mtp_angle_l	lumbar_extension	lumbar_bending	lumbar_rotation
      1.04983333	     -1.62541906	      1.69544405	     -0.44511529	      0.53703958	      1.01878406	      0.34032898	      9.03350362	      2.56724313	      2.19234021	    -11.50150180	      4.83521262	     -9.88719866	      5.80975325	     15.72437886	      1.42596454	     -4.51839388	    -66.65086605	      4.23542032	    -10.31705062	      2.38294102	      0.21364493	     -0.85444138	      4.67002300
      1.05400000	     -1.57263673	      1.76491091	     -0.77695906	      0.54181910	      1.01930669	      0.34098675	      8.55518003	      2.52122801	      2.31414888	    -11.20339626	      4.94637616	     -9.61761084	      5.96281933	     16.18062885	      1.43510919	     -4.82875622	    -66.33490435	      4.45552807	    -10.17684171	      2.37749973	      0.15748297	     -0.93539270	      5.11603305
      1.05816667	     -1.54297053	      1.85837646	     -1.11215573	      0.54655954	      1.01978085	      0.34163541	      8.10928998	      2.44783624	      2.48950507	    -10.91316105	      5.01593785	     -9.40322485	      6.01512441	     16.65325208	      1.47121647	     -5.13889794	    -65.97158040	      4.61757456	    -10.09084410	      2.37680255	      0.12172099	     -1.02822323	      5.22389945
      1.06233333	     -1.49643070	      1.92120291	     -1.43686868	      0.55129812	      1.02021468	      0.34229116	      7.64605459	      2.40329633	      2.63017321	    -10.62665769	      5.11725656	     -9.18122121	      6.10301072	     17.10440843	      1.45838285	     -5.44910539	    -65.59872429	      4.81182665	     -9.96775301	      2.37375844	      0.07594016	     -1.11609879	      5.52024632
      1.06650000	     -1.46664028	      1.99716215	     -1.74977401	      0.55600132	      1.02062253	      0.34288144	      7.20115511	      2.33743939	      2.80033274	    -10.33436646	      5.17954294	     -8.96970257	      6.15877127	     17.56467882	      1.47932879	     -5.72044520	    -65.17753079	      4.96505075	     -9.92200641	      2.37128641	      0.03251511	     -1.17821560	      5.68222197
      1.07066667	     -1.40749568	      2.06306505	     -2.05091037	      0.56071123	      1.02101837	      0.34347866	      6.72785718	      2.27794969	      2.93715487	    -10.05564788	      5.30805322	     -8.77474739	      6.28603549	     17.98341263	      1.47590463	     -5.99481356	    -64.72957392	      5.12801976	     -9.83583168	      2.36267500	     -0.03188794	     -1.25311308	      6.07430207
      1.07483333	     -1.39330773	      2.12684892	     -2.35916487	      0.56538476	      1.02132504	      0.34406915	      6.31382591	      2.22039012	      3.10432990	     -9.78850599	      5.35873451	     -8.58903551	      6.34641888	     18.44456855	      1.46567819	     -6.27298403	    -64.25155354	      5.25967509	     -9.81020105	      2.35855665	     -0.05103677	     -1.32182185	      6.18800581
      1.07900000	     -1.36140229	      2.18788419	     -2.65071082	      0.57005005	      1.02161068	      0.34463091	      5.87935716	      2.15981515	      3.26438404	     -9.52383954	      5.47922300	     -8.41831313	      6.47258947	     18.87816453	      1.45708736	     -6.52460506	    -63.74485728	      5.39570175	     -9.75385251	      2.34832892	     -0.08932692	     -1.38645687	      6.51944809
      1.08316667	     -1.34161604	      2.23638759	     -2.94252461	      0.57469796	      1.02185403	      0.34518578	      5.46164580	      2.11057180	      3.43078465	     -9.26155402	      5.53359443	     -8.24933682	      6.53145327	     19.31665497	      1.42842488	     -6.77676505	    -63.21213385	      5.51283204	     -9.73853753	      2.34368215	     -0.11570272	     -1.43778024	      6.61919590
      1.08733333	     -1.28582702	      2.28852590	     -3.22641300	      0.57934221	      1.02211763	      0.34571850	      5.00764804	      2.05058750	      3.59551206	     -9.00908895	      5.62761722	     -8.10265140	      6.60987608	     19.70056387	      1.40495352	     -7.02254683	    -62.63602040	      5.62237276	     -9.70194191	      2.33731888	     -0.17533011	     -1.49147657	      6.82875127
      1.09150000	     -1.26267985	      2.32957821	     -3.49101101	      0.58394206	      1.02229808	      0.34622999	      4.58462405	      2.00168917	      3.77133367	     -8.74216925	      5.70589701	     -7.94714813	      6.66256544	     20.12264856	      1.37507064	     -7.23060970	    -62.04987117	      5.72030212	     -9.68641733	      2.33319510	     -0.23163166	     -1.55169713	      6.96183507
      1.09566667	     -1.24553885	      2.36950125	     -3.74889737	      0.58855588	      1.02243716	      0.34671151	      4.17194272	      1.94988658	      3.94065873	     -8.48863677	      5.80074822	     -7.81048644	      6.71276283	     20.53581104	      1.34249426	     -7.43579807	    -61.42676097	      5.80724337	     -9.66130570	      2.32942640	     -0.26206007	     -1.59748059	      7.11353857
      1.09983333	     -1.18496726	      2.41215608	     -4.02871805	      0.59316551	      1.02263638	      0.34720170	      3.72589573	      1.88863025	      4.11419872	     -8.25945639	      5.88706283	     -7.69953168	      6.78953047	     20.87747764	      1.30969929	     -7.65590495	    -60.74897115	      5.87736473	     -9.62074421	      2.32392423	     -0.32878995	     -1.62951427	      7.36070964
      1.10400000	     -1.15169048	      2.42882394	     -4.26570388	      0.59775573	      1.02272773	      0.34764638	      3.28918768	      1.85421225	      4.28329303	     -7.99529684	      5.99244528	     -7.60431506	      6.90121537	     21.25542452	      1.25747090	     -7.82254786	    -60.07725223	      5.95283311	     -9.58329970	      2.31740526	     -0.38713314	     -1.65539702	      7.61099783
      1.10816667	     -1.12902710	      2.46213899	     -4.51978999	      0.60233217	      1.02280404	      0.34808526	      2.88558906	      1.79806727	      4.45816969	     -7.76825689	      6.06686586	     -7.48008659	      6.96223851	     21.62478417	      1.21823799	     -8.00628313	    -59.35439251	      6.00324495	     -9.54863203	      2.31450599	     -0.42603417	     -1.68549301	      7.69885057
      1.11233333	     -1.09334030	      2.48054397	     -4.75907413	      0.60690181	      1.02285891	      0.34850111	      2.46058168	      1.75416946	      4.63075904	     -7.53127231	      6.16077186	     -7.37198171	      7.02341078	     21.97159913	      1.16730970	     -8.16878129	    -58.61062102	      6.04818963	     -9.49569025	      2.31298799	     -0.48615250	     -1.70784859	      7.82960134
      1.11650000	     -1.06743299	      2.48790591	     -4.97870163	      0.61146459	      1.02285920	      0.34889042	      2.03748597	      1.71981984	      4.80704904	     -7.28035642	      6.26470181	     -7.29650662	      7.13257580	     22.32214699	      1.11077434	     -8.29882232	    -57.84854717	      6.09074503	     -9.43523236	      2.31387479	     -0.54317476	     -1.71953281	      8.04709324
      1.12066667	     -1.04348048	      2.50502148	     -5.21241034	      0.61602121	      1.02285516	      0.34927586	      1.63556505	      1.67090120	      4.97265432	     -7.06344553	      6.35304653	     -7.18733196	      7.18067023	     22.65503881	      1.05785173	     -8.44806185	    -57.03984903	      6.11222122	     -9.36533051	      2.31537133	     -0.58421925	     -1.73893811	      8.10433635
      1.12483333	     -1.02124245	      2.51527874	     -5.43145142	      0.62057743	      1.02280932	      0.34963320	      1.22932230	      1.62627980	      5.13662665	     -6.83750346	      6.45636485	     -7.08758079	      7.22725771	     22.98043516	      1.00288136	     -8.57568684	    -56.20906518	      6.12757931	     -9.28147840	      2.31892253	     -0.63600036	     -1.75459514	      8.20343927
      1.12900000	     -1.00507055	      2.52455053	     -5.64384281	      0.62512777	      1.02272402	      0.34997539	      0.83242613	      1.58048715	      5.29548360	     -6.61810681	      6.56725908	     -6.99461159	      7.27235459	     23.30072876	      0.94905729	     -8.69062926	    -55.34991089	      6.13383910	     -9.18651173	      2.32469224	     -0.67979017	     -1.76643014	      8.31108113
      1.13316667	     -0.98378614	      2.52033532	     -5.84935412	      0.62967789	      1.02262083	      0.35029995	      0.42917322	      1.54553886	      5.44965789	     -6.40038930	      6.67759694	     -6.90496022	      7.31773548	     23.60266072	      0.88249248	     -8.79436377	    -54.46720137	      6.13702687	     -9.06963427	      2.33347001	     -0.73180288	     -1.76447575	      8.42251716
      1.13733333	     -0.94737945	      2.52084939	     -6.05038756	      0.63423442	      1.02253229	      0.35060909	      0.00852012	      1.50031635	      5.59932347	     -6.17977052	      6.78705654	     -6.81502625	      7.35834650	     23.87095069	      0.82620094	     -8.88915707	    -53.54516977	      6.12530077	     -8.94528942	      2.34393877	     -0.80102208	     -1.76969789	      8.51672793
